# xmcd
#
# Track frame offsets: 
#        150
#        11466
#        25811
#        36898
#        51924
#        64783
#        77105
#        88888
#        99967
#        116199
#        128954
#        140127
#        153253
#        165281
#        175973
#        187981
#        199072
#        211469
#        222499
#        235952
#        245792
#        258255
#        270124
#        281959
#        292335
#
# Disc length: 4085 seconds
#
# Revision: 1
# Processed by: cddbd v1.5.2PL0 Copyright (c) Steve Scherf et al.
# Submitted via: ExactAudioCopyFreeDBPlugin 1.0
#
DISCID=790ff319
DTITLE=The Apollas - Absolutely Right!:  The Complete Tiger, Loma and 
DTITLE=Warner Bros. Recordings
DYEAR=2012
DGENRE=Rhythm and Blues
TTITLE0=You're Absolutely Right
TTITLE1=Who Would Want Me Now
TTITLE2=Just Can't Get Enough of You
TTITLE3=I've Got So Used to Loving You  (as "Leola Jiles")
TTITLE4=He Ain't No Angel
TTITLE5=Mr. Creator
TTITLE6=You'll Always Have Me
TTITLE7=Open the Door, Fool
TTITLE8=Payin' (For fhe Wrong I've Done)  (as "The Lovejoys")
TTITLE9=Jive Cat
TTITLE10=Sorry Mama
TTITLE11=Keep it Coming  (as "Leola Jiles")
TTITLE12=Seven Days
TTITLE13=See the Silver Moon
TTITLE14=All Sold Out
TTITLE15=Wait 'Round the Corner  (as "The Lovejoys")
TTITLE16=Pretty Red Balloons
TTITLE17=Nobody's Baby (Am I)
TTITLE18=I'm Under the Influence of Love
TTITLE19=Lock Me in Your Heart
TTITLE20=Insult to Injury  (as "Leola Jiles")
TTITLE21=Baby I'll Come
TTITLE22=It's Mighty Nice  (as "Leola Jiles")
TTITLE23=My Soul Concerto
TTITLE24=Why Was I Born  (as "Leola Jiles")
EXTD=
EXTT0=
EXTT1=
EXTT2=
EXTT3=
EXTT4=
EXTT5=
EXTT6=
EXTT7=
EXTT8=
EXTT9=
EXTT10=
EXTT11=
EXTT12=
EXTT13=
EXTT14=
EXTT15=
EXTT16=
EXTT17=
EXTT18=
EXTT19=
EXTT20=
EXTT21=
EXTT22=
EXTT23=
EXTT24=
PLAYORDER=
